<svg width="100" height="100" viewBox="0 0 100 100" fill="none" xmlns="http://www.w3.org/2000/svg">
<path d="M0 12C0 5.37258 5.37258 0 12 0H88C94.6274 0 100 5.37258 100 12V88C100 94.6274 94.6274 100 88 100H12C5.37258 100 0 94.6274 0 88V12Z" fill="#0089FF"/>
<!-- <path d="M65.7097 32.9462H67.3871V24H33V32.9462H43.9032H65.7097Z" fill="white"/> -->
<!-- <path d="M43.9032 66.2151V53.914H65.7097V44.9677H43.9032H33V75.1613H67.6667V66.2151H43.9032Z" fill="white"/> -->

<g id="B" transform="translate(11.000000, 5.000000)">
    <path
        d="M45.691667,45.15 C48.591667,46.1 50.691667,48.95 50.691667,52.2 C50.691667,57.95 46.691667,61 40.291667,61 L28.541667,61 L28.541667,30.3 L39.291667,30.3 C45.691667,30.3 49.691667,33.15 49.691667,38.65 C49.691667,41.95 47.941667,44.35 45.691667,45.15 Z M33.591667,43.2 L39.241667,43.2 C42.791667,43.2 44.691667,41.85 44.691667,38.95 C44.691667,36.05 42.791667,34.8 39.241667,34.8 L33.591667,34.8 L33.591667,43.2 Z M33.591667,47.5 L33.591667,56.5 L40.191667,56.5 C43.691667,56.5 45.591667,54.75 45.591667,52 C45.591667,49.2 43.691667,47.5 40.191667,47.5 L33.591667,47.5 Z"
        fill="white"
     />
</g>
</svg>
